# xmcd
#
# Track frame offsets: 
#        150
#        14231
#        37284
#        61209
#        80433
#
# Disc length: 1620 seconds
#
# Revision: 0
# Processed by: cddbd v1.5.2PL0 Copyright (c) Steve Scherf et al.
# Submitted via: ExactAudioCopy v1.0b1
#
DISCID=41065205
DTITLE=Dirt Box Charlie - Echoes From The Alley
DYEAR=2013
DGENRE=Blues
TTITLE0=Cat Called Charlie
TTITLE1=Shuffle Me Baby
TTITLE2=Desperate Soul
TTITLE3=Someday
TTITLE4=Dream About You
EXTD=
EXTT0=
EXTT1=
EXTT2=
EXTT3=
EXTT4=
PLAYORDER=
